<svg viewBox="0 0 2520 1530" xmlns="http://www.w3.org/2000/svg" xmlns:xlink="http://www.w3.org/1999/xlink"><defs><filter id="b" x="-.139" y="-.891" width="1.277" height="2.782" color-interpolation-filters="sRGB"><feGaussianBlur stdDeviation="50.255"/></filter><filter id="d" x="-.139" y="-.891" width="1.277" height="2.782" color-interpolation-filters="sRGB"><feGaussianBlur stdDeviation="50.255"/></filter><filter id="e" x="-.139" y="-.891" width="1.277" height="2.782" color-interpolation-filters="sRGB"><feGaussianBlur stdDeviation="50.255"/></filter><linearGradient id="a"><stop stop-color="#333" offset="0"/><stop stop-color="#aaa" offset=".088"/><stop stop-color="#aaa" offset=".75"/><stop stop-color="#333" offset="1"/></linearGradient><linearGradient id="c" x1="693.03" x2="693.59" y1="823.52" y2="917.46" gradientUnits="userSpaceOnUse" xlink:href="#a"/></defs><path transform="matrix(2.02913 0 0 .71848 -49.907 821.668)" d="M1217.2 667.02c0 37.379-194.7 67.68-434.87 67.68s-434.87-30.301-434.87-67.68c0-37.379 194.7-67.68 434.87-67.68s434.87 30.301 434.87 67.68z" color="#000" fill="#1a1a1a" fill-opacity=".667" filter="url(#b)"/><g transform="translate(-553.996 -1612.447) scale(3.2252)"><path d="M640.5 823.11c-1.01 42.426-50 94.75-50 94.75H809s-48.99-52.324-50-94.75l-56.22.25z" color="#000" transform="translate(-51.232)" fill="url(#c)"/><rect x="387.9" y="513.95" width="521.24" height="309.11" rx="19.041" ry="18.269" color="#000" stroke="#aaa" stroke-width="1.55"/><path color="#000" fill="#fff" d="M408.52 533.5h480v270h-480z"/><path color="#000" fill="#aaa" d="M538.66 909.93h219.71v9.091H538.66z"/></g><g color="#000"><path transform="matrix(.85877 0 0 .71848 92.26 906.943)" d="M1217.2 667.02c0 37.379-194.7 67.68-434.87 67.68s-434.87-30.301-434.87-67.68c0-37.379 194.7-67.68 434.87-67.68s434.87 30.301 434.87 67.68z" fill="#1a1a1a" fill-opacity=".667" filter="url(#d)"/><g transform="translate(-367.88 -1606.244) scale(3.2252)"><rect x="247.14" y="671.36" width="200" height="266" rx="20" ry="20" stroke="#aaa" stroke-width=".93"/><path fill="#fff" d="M263.64 687.36h167v222h-167z"/></g></g><g><path transform="matrix(.34 0 0 .71848 87.616 959.74)" d="M1217.2 667.02c0 37.379-194.7 67.68-434.87 67.68s-434.87-30.301-434.87-67.68c0-37.379 194.7-67.68 434.87-67.68s434.87 30.301 434.87 67.68z" color="#000" fill="#1a1a1a" fill-opacity=".667" filter="url(#e)"/><g transform="matrix(3.9905 0 0 3.9905 -767.575 -2230.932)" color="#000"><rect x="247.14" y="797.08" width="70" height="130.29" rx="7" ry="9.796" stroke="#aaa" stroke-width=".752"/><path fill="#fff" d="M252.14 805.22h60v106h-60z"/></g></g></svg>